# xmcd
#
# Track frame offsets: 
#        150
#        11261
#        26021
#        43759
#        56434
#        76268
#        89265
#        100738
#        111573
#        124517
#        136617
#        146410
#        160195
#        170561
#        183872
#        201412
#        214657
#        219307
#        230921
#        250460
#        263222
#        275563
#        288541
#        305764
#        321493
#        334977
#
# Disc length: 4647 seconds
#
# Revision: 2
# Processed by: cddbd v1.5.2PL0 Copyright (c) Steve Scherf et al.
# Submitted via: ExactAudioCopy v1.1
#
DISCID=8612251a
DTITLE=The Yardbirds - Little Games [CD2 Of 2)
DYEAR=1967
DGENRE=Rock
TTITLE0=Little Games (1992 stereo remix)
TTITLE1=Smile On Me (1992 stereo remix)
TTITLE2=White Summer (1992 stereo remix)
TTITLE3=Tinker, Tailor, Soldier, Sailor (1992 stereo remix)
TTITLE4=Glimpses (1992 stereo remix)
TTITLE5=Drinking Muddy Water (1992 stereo remix)
TTITLE6=No Excess Baggage (1992 stereo remix)
TTITLE7=Stealing, Stealing (1992 stereo remix)
TTITLE8=Only The Black Rose (1992 stereo remix)
TTITLE9=Little Soldier Boy (1992 stereo remix)
TTITLE10=Puzzles (1992 stereo remix)
TTITLE11=I Remeber The Night (1992 stereo remix)
TTITLE12=Ten Little Indians (1992 stereo remix)
TTITLE13=You Stole My Love (backing track) (stereo)
TTITLE14=White Summer (acoustic version) (stereo)
TTITLE15=Tinker, Tailor, Soldier, Sailor (backing track) (stereo)
TTITLE16=L.S.D. (inst) (stereo)
TTITLE17=De Lane Lea Lee (stereo)
TTITLE18=Glimpses (alt) (stereo)
TTITLE19=Never Mind (inst) (mono)
TTITLE20=Goodnight Sweet Josephine (mono single version)
TTITLE21=Together - Henry's Coming Home (mono)
TTITLE22=Together - Love Mom And Dad (mono)
TTITLE23=Together - Together (mono)
TTITLE24=Together - Henry's Coming Home (stereo)
TTITLE25=Together - Together Now (alt) (mono)
EXTD=
EXTT0=
EXTT1=
EXTT2=
EXTT3=
EXTT4=
EXTT5=
EXTT6=
EXTT7=
EXTT8=
EXTT9=
EXTT10=
EXTT11=
EXTT12=
EXTT13=
EXTT14=
EXTT15=
EXTT16=
EXTT17=
EXTT18=
EXTT19=
EXTT20=
EXTT21=
EXTT22=
EXTT23=
EXTT24=
EXTT25=
PLAYORDER=
